<svg width="724" height="412" viewBox="0 0 724 412" fill="none" xmlns="http://www.w3.org/2000/svg">
<circle cx="362.5" cy="32.5" r="355.5" fill="#F2F2F4"/>
<path fill-rule="evenodd" clip-rule="evenodd" d="M44.6394 -77.7288C52.3933 -74.6786 56.2072 -65.9181 53.158 -58.1617C27.3734 7.42741 23.1721 81.3089 41.4319 149.377L41.4368 149.395L41.4416 149.413C59.5334 217.534 99.8065 279.623 154.828 323.592C161.337 328.794 162.399 338.29 157.199 344.802C151.998 351.314 142.505 352.375 135.995 347.173C75.8827 299.136 32.023 231.483 12.2854 157.181C-7.64626 82.8647 -3.06299 2.3773 25.0786 -69.2075C28.1278 -76.9639 36.8855 -80.779 44.6394 -77.7288Z" fill="#59CBE8"/>
<path fill-rule="evenodd" clip-rule="evenodd" d="M622.763 -147.521C632.672 -155.912 647.505 -154.68 655.893 -144.767L656.349 -144.219C655.908 -144.75 655.9 -144.759 655.908 -144.75L655.924 -144.73L655.963 -144.684C655.991 -144.651 656.311 -144.265 656.349 -144.219C656.235 -144.358 656.426 -144.127 656.349 -144.219C656.578 -143.94 656.882 -143.566 657.255 -143.098C658 -142.161 659.022 -140.847 660.274 -139.164C662.777 -135.801 666.204 -130.958 670.176 -124.715C678.112 -112.24 688.273 -94.0987 697.58 -70.9268C716.219 -24.5197 731.464 42.1896 718.397 123.616C705.175 206.006 663.752 266.866 626.201 306.802C607.398 326.8 589.398 341.738 576.014 351.733C569.312 356.737 563.739 360.523 559.764 363.103C557.775 364.393 556.184 365.384 555.047 366.076C554.479 366.422 554.024 366.694 553.689 366.891C553.522 366.99 553.385 367.07 553.279 367.131L553.144 367.21L553.094 367.239L553.073 367.251C553.064 367.256 553.144 367.21 553.056 367.261C541.792 373.718 527.427 369.819 520.972 358.552C514.523 347.297 518.405 332.947 529.64 326.479C529.647 326.475 529.655 326.47 529.663 326.466L529.642 326.478C529.66 326.467 529.709 326.438 529.788 326.392C529.944 326.3 530.218 326.137 530.603 325.902C531.372 325.434 532.582 324.683 534.176 323.648C537.367 321.577 542.087 318.378 547.89 314.045C559.514 305.365 575.369 292.22 591.955 274.581C625.182 239.243 660.669 186.618 671.977 116.161C683.438 44.7409 670.066 -13.2812 653.955 -53.3937C645.887 -73.4815 637.14 -89.047 630.512 -99.464C627.202 -104.667 624.433 -108.567 622.56 -111.084C621.624 -112.342 620.913 -113.252 620.473 -113.806C620.253 -114.082 620.1 -114.269 620.021 -114.365C619.992 -114.401 619.973 -114.424 619.964 -114.435C611.626 -124.347 612.872 -139.145 622.763 -147.521Z" fill="#9063CD"/>
<path fill-rule="evenodd" clip-rule="evenodd" d="M310.687 -269.497C313.474 -257.309 305.856 -245.169 293.673 -242.382C275.81 -238.294 258.305 -232.649 241.421 -225.524C224.621 -218.38 208.43 -209.664 193.036 -199.627C193.034 -199.626 193.033 -199.625 193.031 -199.623C162.31 -179.556 135.072 -154.161 113.047 -124.862C91.1093 -95.5399 74.3214 -62.388 63.6944 -27.3682L60.7534 -17.0094C60.6413 -16.6022 60.5344 -16.2296 60.4533 -15.9483L60.3896 -15.7271C60.3255 -15.5052 60.2821 -15.3546 60.2367 -15.1933C60.191 -15.0309 60.1658 -14.936 60.1545 -14.8928L60.1185 -14.7178L56.8295 -0.466034C56.2975 2.27426 55.849 4.8175 55.3664 7.5535C55.0536 9.3269 54.7266 11.1813 54.3532 13.2228C54.2825 13.6441 54.2137 14.0242 54.1582 14.3268C54.1254 14.5052 54.0922 14.6838 54.0663 14.8232C54.0385 14.973 54.0165 15.0917 53.9963 15.2026C53.9504 15.4546 53.9302 15.5787 53.9238 15.6183L53.9172 15.6751L53.439 19.4671L52.5243 26.6565C50.4346 44.8665 49.8916 63.2747 50.8633 81.6259C51.5244 94.1106 41.9426 104.768 29.4619 105.429C16.9811 106.09 6.3276 96.5053 5.66653 84.0206C4.56077 63.1374 5.18041 42.15 7.57665 21.3434L7.59205 21.2097L8.98559 10.226C9.14091 8.92032 9.34165 7.7872 9.47007 7.08252C9.54389 6.67746 9.59118 6.42401 9.62532 6.24103C9.67205 5.9906 9.69414 5.87222 9.72589 5.67789L9.76106 5.46268L9.80036 5.24814C10.0735 3.75726 10.3668 2.09955 10.6739 0.362946C11.2421 -2.84912 11.858 -6.33105 12.4831 -9.52625L12.5562 -9.90002L15.9088 -24.4276C16.1765 -25.676 16.4689 -26.748 16.6721 -27.4694C16.8447 -28.0824 16.9164 -28.3264 16.9682 -28.5028C17.0167 -28.6678 17.0478 -28.7737 17.1279 -29.0673L17.1595 -29.1831L20.2627 -40.1132L20.3205 -40.3042C32.4779 -80.458 51.6926 -118.422 76.829 -152.014L76.8436 -152.033L76.8582 -152.053C102.089 -185.62 133.221 -214.63 168.301 -237.542L168.308 -237.547L168.316 -237.552C185.835 -248.975 204.374 -258.968 223.743 -267.203L223.77 -267.214L223.797 -267.225C243.121 -275.382 263.147 -281.841 283.581 -286.516C295.764 -289.304 307.9 -281.684 310.687 -269.497Z" fill="#FDDA24"/>
<path fill-rule="evenodd" clip-rule="evenodd" d="M711.709 95.493C718.938 96.4372 724.033 103.065 723.089 110.296C720.452 130.496 716.241 150.584 710.192 170.195L710.187 170.213L710.181 170.231C704.102 189.746 696.401 208.743 687.177 226.975L687.146 227.037L687.114 227.099C686.645 228.002 686.148 228.979 685.625 230.007C683.935 233.332 681.977 237.184 679.833 240.751L676.217 247.042C676.067 247.301 675.911 247.575 675.747 247.861C674.727 249.646 673.445 251.889 672.013 254.038C671.189 255.318 670.338 256.651 669.47 258.01C667.686 260.805 665.829 263.713 663.981 266.505L663.86 266.688L655.084 279.031L654.994 279.151C651.16 284.294 647.191 289.332 643.098 294.262C638.44 299.872 630.117 300.642 624.509 295.982C618.9 291.323 618.13 282.997 622.788 277.387C626.561 272.845 630.215 268.208 633.743 263.48L642.089 251.742C643.779 249.184 645.382 246.672 647.048 244.063C647.965 242.626 648.901 241.159 649.882 239.638L649.943 239.543L650.005 239.45C650.909 238.1 651.708 236.704 652.773 234.847C652.951 234.537 653.136 234.214 653.33 233.876L657.082 227.349L657.154 227.23C658.789 224.52 660.151 221.842 661.744 218.712C662.339 217.543 662.966 216.31 663.652 214.989C672.196 198.09 679.334 180.48 684.97 162.392C690.537 144.336 694.45 125.725 696.91 106.877C697.854 99.6456 704.48 94.5488 711.709 95.493Z" fill="#FDDA24"/>
<path fill-rule="evenodd" clip-rule="evenodd" d="M80.8752 245.481C86.8423 241.291 95.0752 242.733 99.2639 248.702C112.797 267.987 128.408 285.817 145.737 301.787L145.93 301.965L146.116 302.15C146.557 302.591 146.917 302.9 147.549 303.444C147.895 303.742 148.324 304.11 148.893 304.609L152.302 307.564C153.343 308.456 154.255 309.25 155.114 310C156.419 311.137 157.604 312.17 158.946 313.283L166.004 318.83C166.926 319.545 167.716 320.171 168.43 320.737C169.987 321.971 171.182 322.918 172.6 323.881L172.72 323.962L180.292 329.347C181.013 329.852 181.534 330.227 181.977 330.547C182.575 330.978 183.031 331.306 183.646 331.715L195.115 339.07C195.339 339.211 195.543 339.343 195.709 339.451C195.934 339.597 196.01 339.646 196.17 339.75C196.295 339.831 196.377 339.882 196.437 339.92C196.487 339.951 196.509 339.964 196.51 339.964L196.537 339.979L202.551 343.437L202.565 343.445C222.951 355.231 244.609 364.803 267.048 371.911L267.305 371.993L267.559 372.085C267.777 372.164 268.109 372.268 268.762 372.448L268.806 372.46L271.066 373.1L275.424 374.336C275.434 374.339 275.445 374.342 275.456 374.345C276.738 374.702 277.873 375.029 278.942 375.337C280.638 375.825 282.17 376.266 283.866 376.706L292.657 378.734L297.091 379.759L297.132 379.769L299.022 380.199L310.026 382.164L314.484 382.961C315.184 383.078 315.668 383.135 316.347 383.215C316.879 383.278 317.531 383.355 318.5 383.486L327.482 384.63C328.607 384.759 329.265 384.852 329.769 384.923C330.362 385.006 330.742 385.059 331.421 385.109L331.436 385.11L336.033 385.458C343.302 386.008 348.75 392.349 348.2 399.621C347.65 406.893 341.311 412.343 334.041 411.793L329.489 411.448C329.485 411.448 329.481 411.447 329.477 411.447C328.097 411.345 326.119 411.084 325.053 410.943C324.741 410.902 324.507 410.871 324.39 410.858L324.309 410.848L315.059 409.671L315.005 409.664C314.809 409.637 314.495 409.599 314.107 409.551C313.002 409.416 311.298 409.207 310.024 408.991L309.965 408.981L305.384 408.162L293.777 406.091L291.204 405.504L286.709 404.465L277.6 402.364L277.436 402.321C275.372 401.789 273.118 401.142 271.102 400.563C270.108 400.278 269.173 400.009 268.346 399.779L268.315 399.77L261.702 397.896C260.949 397.688 259.942 397.4 258.853 397.018C234.662 389.337 211.329 379.013 189.367 366.319C189.363 366.316 189.359 366.314 189.354 366.311L183.424 362.901C182.776 362.532 182.216 362.174 181.843 361.933C181.648 361.807 181.514 361.72 181.41 361.652C181.257 361.552 181.167 361.493 181.033 361.41L180.975 361.373L169.237 353.846L169.158 353.794C168.128 353.112 166.863 352.206 165.959 351.558C165.609 351.307 165.314 351.095 165.106 350.95L165.069 350.924L157.651 345.649C155.405 344.115 153.107 342.294 151.318 340.876C150.754 340.43 150.241 340.023 149.796 339.677L149.761 339.65L142.373 333.844L142.247 333.739C140.648 332.417 138.914 330.908 137.355 329.551C136.544 328.846 135.78 328.181 135.107 327.605L135.076 327.578L131.541 324.514L131.509 324.486C131.376 324.369 131.195 324.214 130.979 324.029C130.157 323.322 128.824 322.176 127.68 321.055C109.032 303.846 92.2307 284.646 77.6552 263.875C73.4665 257.906 74.9081 249.671 80.8752 245.481Z" fill="#F5B6CD"/>
<path fill-rule="evenodd" clip-rule="evenodd" d="M583.195 314.255C587.779 319.925 586.9 328.24 581.231 332.826C573.444 339.125 565.393 345.108 557.097 350.745L557.073 350.762L557.049 350.778C540.098 362.186 522.201 372.18 503.595 380.618L503.587 380.621L496.955 383.619C495.501 384.304 494.054 384.869 493.065 385.255C492.984 385.286 492.907 385.316 492.833 385.345C492.826 385.348 492.819 385.351 492.812 385.353L478.803 390.877L475.001 392.17L464.478 395.729L464.464 395.733C464.337 395.776 464.185 395.828 464.011 395.888C463.121 396.192 461.674 396.687 460.247 397.069L445.981 401.122L445.819 401.163C426.026 406.25 405.829 409.674 385.504 411.446C378.241 412.08 371.84 406.703 371.207 399.438C370.574 392.173 375.948 385.769 383.211 385.136C402.061 383.493 420.773 380.324 439.09 375.625L453.269 371.597L453.396 371.564C453.867 371.44 454.27 371.303 455.083 371.027C455.354 370.935 455.671 370.828 456.051 370.7C456.056 370.699 456.06 370.697 456.065 370.696L469.718 366.072L483.178 360.764L483.2 360.756C484.48 360.255 485.142 359.995 485.733 359.713L485.855 359.655L492.693 356.565C492.696 356.563 492.698 356.562 492.701 356.561C509.956 348.736 526.559 339.465 542.286 328.883C549.958 323.669 557.412 318.129 564.63 312.29C570.299 307.704 578.61 308.584 583.195 314.255Z" fill="#FF7F41"/>
</svg>
