<svg xmlns="http://www.w3.org/2000/svg" xmlns:xlink="http://www.w3.org/1999/xlink" width="16" height="158" viewBox="0 0 16 158"><defs><path id="fx4wvuppda" d="M0.36 0.124L12.048 0.124 12.048 97.883 0.36 97.883z"/><path id="lfmni3galc" d="M0 157.876L15.974 157.876 15.974 0.448 0 0.448z"/></defs><g fill="none" fill-rule="evenodd"><g><g><path fill="#ADADAD" fill-rule="nonzero" d="M10.718 153.098l-4.957 1.764v-.66l3.591-1.18c.307-.096.58-.193.813-.258-.256-.062-.522-.147-.813-.233l-3.591-1.24v-.621l4.957 1.8v.628zm-4.957-5.98h4.957v-.621H5.761v.621zm2.998-6.72H8.19v-1.947h1.834c.268.307.454.601.582.907.128.327.175.649.175.982 0 .449-.083.863-.285 1.216-.204.387-.505.66-.912.843-.383.192-.836.278-1.336.278-.478 0-.924-.086-1.348-.278-.418-.183-.71-.45-.917-.81-.205-.343-.303-.75-.303-1.19 0-.338.028-.644.163-.9.117-.27.29-.49.487-.64.209-.15.477-.258.812-.348l.163.552c-.254.065-.44.15-.59.252-.136.114-.269.258-.35.44-.094.188-.132.407-.132.644 0 .263.038.504.144.708.081.194.22.37.35.481.161.125.324.221.485.28.321.128.656.182 1.001.182.442 0 .82-.054 1.138-.203.273-.145.51-.333.645-.611.14-.268.214-.559.214-.864 0-.254-.056-.505-.162-.767-.117-.258-.23-.424-.347-.569H8.76v1.363l-.001-.001zm-2.998-5.856h4.957v-.616H5.761v.616zm4.957-4.56H5.761v-.62h4.357v-2.242h.6v2.862zm0-5.995l-4.957-1.758v-.655l4.957-1.877v.697l-1.499.537v1.908l1.5.51v.638h-.001zm-2.038-1.313v-1.562l-1.374.483c-.417.144-.766.262-1.034.322.327.048.629.14.941.251l1.467.506zm2.038-6.36H5.761v-1.6c0-.337.018-.606.065-.799.065-.258.186-.488.365-.675.216-.243.5-.414.843-.537.341-.129.737-.187 1.18-.187.388 0 .72.047 1.005.14.29.069.517.17.713.295.186.138.338.272.454.412.111.155.197.343.263.552.05.214.07.462.07.75v1.648l-.001.001zm-.6-.618v-.982c0-.29-.024-.515-.07-.713-.056-.171-.163-.295-.26-.397-.163-.14-.359-.263-.638-.327-.263-.096-.577-.13-.947-.13-.517 0-.913.076-1.186.242-.29.156-.477.333-.57.558-.069.172-.116.43-.116.793v.956h3.787zm-1.822-6.743c-.814 0-1.465-.208-1.93-.61-.466-.412-.685-.94-.685-1.571 0-.43.098-.795.303-1.154.238-.327.544-.594.928-.767.394-.187.848-.273 1.325-.273.512 0 .965.1 1.36.284.395.193.696.445.9.788.202.36.285.703.285 1.122 0 .434-.083.81-.303 1.148-.233.354-.547.606-.94.782-.396.172-.804.251-1.243.251zm0-.615c.638 0 1.091-.15 1.433-.451.343-.29.517-.67.517-1.115 0-.462-.174-.828-.517-1.132-.354-.29-.842-.445-1.492-.445-.4 0-.755.064-1.047.204-.3.112-.54.311-.707.552-.176.226-.25.514-.25.8 0 .448.174.803.482 1.126.319.3.848.461 1.58.461h.001z" transform="translate(-64 -450) translate(64 450)"/><g transform="translate(-64 -450) translate(64 450) translate(1.94 .324)"><mask id="3rophh8o8b" fill="#fff"><use xlink:href="#fx4wvuppda"/></mask><path fill="#ADADAD" fill-rule="nonzero" d="M11.968 69.231H7.383V67.79c0-.342.03-.592.07-.768.069-.236.17-.455.337-.61.203-.226.448-.392.78-.505.318-.117.679-.176 1.085-.176.348 0 .663.043.924.118.279.072.506.171.675.3.18.117.308.237.417.375.111.14.18.305.228.498.069.22.069.441.069.689v1.52zm-.535-.556v-.896c0-.283-.028-.504-.093-.67-.046-.145-.129-.28-.233-.366-.145-.144-.325-.23-.58-.316-.232-.075-.524-.105-.896-.105-.47 0-.835.08-1.091.213-.257.14-.43.321-.525.537-.055.148-.086.391-.086.718v.885h3.504zm.535-3.722H7.383v-3.066h.546V64.4h1.407v-2.36h.54v2.36h1.557v-2.606h.535v3.159zm-1.61-8.598l.17-.562c.493.103.859.326 1.143.616.256.333.377.685.377 1.143 0 .445-.08.81-.289 1.104-.197.284-.489.51-.885.66-.377.14-.788.216-1.243.216-.45 0-.87-.083-1.224-.259-.354-.15-.633-.387-.82-.713-.175-.301-.279-.638-.279-1.04 0-.397.116-.76.349-1.062.242-.28.568-.49.987-.597l.152.541c-.35.103-.599.254-.72.431-.177.197-.251.43-.251.719 0 .327.097.6.26.81.153.215.397.37.68.456.287.09.578.122.866.122.408 0 .745-.043 1.034-.144.297-.103.524-.274.67-.494.14-.22.191-.46.191-.709 0-.313-.08-.585-.272-.803-.205-.22-.506-.381-.897-.435h.001zm-.616-1.094c-.76 0-1.365-.187-1.796-.574-.417-.369-.638-.852-.638-1.448 0-.39.104-.75.303-1.056.197-.317.475-.551.86-.718.348-.173.76-.248 1.225-.248.46 0 .883.075 1.24.252.365.188.648.425.846.74.186.307.266.665.266 1.03 0 .398-.08.757-.312 1.08-.21.315-.482.545-.839.707-.37.16-.754.235-1.155.235zm.005-.578c.56 0 .987-.113 1.314-.386.302-.297.465-.645.465-1.058 0-.412-.163-.767-.477-1.036-.315-.272-.778-.4-1.364-.4-.356 0-.691.047-.975.164-.287.125-.494.286-.633.505-.178.222-.252.473-.252.767 0 .392.168.725.446 1.01.3.3.792.434 1.476.434zm2.221-4.173H7.383v-.554h4.05v-2.088h.535v2.642zm-2.226-3.144c-.76 0-1.365-.19-1.796-.57-.417-.37-.638-.854-.638-1.451 0-.392.104-.757.303-1.052.197-.315.475-.562.86-.738.348-.157.76-.243 1.225-.243.46 0 .883.086 1.24.274.365.15.648.424.846.718.186.34.266.682.266 1.04 0 .408-.08.757-.312 1.068-.21.312-.482.557-.839.72-.37.166-.754.234-1.155.234zm.005-.57c.56 0 .987-.141 1.314-.426.302-.27.465-.618.465-1.025 0-.418-.163-.765-.477-1.04-.315-.268-.778-.413-1.364-.413-.356 0-.691.06-.975.16-.287.13-.494.3-.633.528-.178.23-.252.484-.252.765 0 .39.168.745.446 1.025.3.285.792.427 1.476.427v-.001zm2.221-4.18H7.383v-.844l3.258-1 .694-.207c-.186-.03-.423-.133-.756-.212l-3.196-1.021v-.76h4.585v.548H8.133l3.835 1.233v.488l-3.891 1.238h3.891v.537zm0-4.924H7.383v-1.605c0-.314.053-.571.146-.772.094-.19.234-.348.431-.444.19-.112.394-.183.61-.183.19 0 .377.07.55.16.176.097.302.241.425.436.081-.263.202-.435.401-.596.197-.127.446-.197.695-.197.224 0 .42.036.613.114.18.083.33.197.417.32.111.122.18.279.228.47.069.193.069.415.069.687v1.61zm-2.64-.548v-.933c0-.25-.032-.43-.055-.546-.042-.128-.117-.236-.252-.321-.097-.06-.225-.086-.377-.086-.162 0-.29.022-.419.086-.115.068-.195.172-.232.3-.047.116-.064.335-.064.636v.864h1.4-.001zm2.105 0v-1.062c0-.18 0-.322-.011-.39-.035-.13-.082-.237-.14-.322-.059-.09-.152-.166-.233-.224-.137-.044-.249-.065-.408-.065-.16 0-.31.026-.446.123-.12.076-.21.183-.261.32-.035.135-.07.36-.07.628v.992h1.57-.001zm-4.05-3.524h4.585v-.557H7.383v.557zm4.585-1.083l-4.585-1.625v-.61l4.585-1.723v.627l-1.389.499v1.766l1.389.473v.593zm-1.87-1.227v-1.427l-1.28.434c-.395.14-.694.243-.963.308.3.05.615.122.905.215l1.337.47h.001zM3.543 97.883l-.035-.532c.233-.031.429-.085.564-.175.144-.097.26-.243.354-.43.081-.177.14-.402.14-.65 0-.204-.047-.4-.1-.57-.075-.17-.173-.276-.273-.361-.149-.072-.256-.125-.424-.125-.116 0-.26.027-.378.125-.08.064-.196.19-.256.38-.045.11-.116.37-.209.756-.097.395-.213.65-.296.8-.116.219-.256.38-.423.466-.163.107-.372.14-.593.14-.222 0-.42-.06-.622-.172-.222-.125-.36-.295-.481-.527-.094-.237-.152-.498-.152-.804 0-.29.058-.57.174-.805.106-.24.261-.428.494-.557.205-.133.435-.194.703-.204l.046.551c-.278.012-.52.125-.65.274-.15.171-.238.408-.238.73 0 .359.076.595.213.74.13.167.29.243.49.243.162 0 .301-.061.396-.168.104-.097.22-.395.33-.842.12-.45.209-.761.297-.937.126-.248.29-.425.476-.554.174-.09.407-.17.651-.17.225 0 .475.08.685.204.213.117.372.309.512.541.116.246.174.52.174.83 0 .382-.058.708-.186.96-.128.248-.31.455-.559.606-.22.146-.5.226-.824.237zm-3.098-6.93V90.4H3.09c.453 0 .819.042 1.103.15.274.086.49.257.675.527.151.246.244.573.244.975 0 .401-.081.724-.233.97-.128.263-.36.436-.628.554-.292.107-.672.154-1.161.154H.446v-.563h2.645c.407 0 .68-.033.87-.097.186-.068.35-.186.43-.342.117-.177.176-.382.176-.624 0-.411-.1-.716-.303-.874-.219-.182-.603-.279-1.173-.279H.446l-.001.002zm4.586-1.496H.446v-1.6c0-.272.023-.48.037-.63.033-.205.11-.387.214-.538.105-.123.257-.237.466-.32.172-.092.37-.125.61-.125.381 0 .735.114.992.333.267.215.407.643.407 1.238v1.107h1.86v.535h-.001zm-2.4-.535v-1.107c0-.373-.077-.62-.226-.772-.14-.16-.35-.225-.61-.225-.204 0-.344.044-.5.125-.133.1-.24.208-.268.358-.035.086-.035.269-.035.514v1.107H2.631zm2.4-3.423H.446v-3.067h.547v2.514h1.389v-2.36h.557v2.36h1.57v-2.6h.523V85.5l-.001-.001zm0-3.948H.446v-1.883c0-.359.037-.659.123-.846.071-.205.221-.348.424-.477.217-.125.46-.172.703-.172.333 0 .617.086.819.301.226.197.372.48.436.89.07-.14.14-.263.22-.333.164-.173.373-.32.6-.471l1.26-.731v.702l-.958.57c-.275.151-.493.302-.633.407-.129.092-.252.2-.304.264-.062.085-.092.183-.116.262-.035.08-.035.171-.035.315v.645h2.047v.557h-.001zm-2.556-.557v-1.2c0-.265-.037-.463-.094-.603-.064-.143-.145-.257-.273-.333-.133-.064-.273-.111-.413-.111-.197 0-.4.075-.533.214-.135.14-.21.381-.21.692v1.34h1.523v.001zm-2.03-3.786h4.586v-.574H.446v.574H.445zm4.586-1.551H.446v-.578l3.599-2.216H.446v-.546h4.586v.579L1.428 75.11h3.604v.547h-.001zm0-5.357H.993v1.39H.446v-3.348h.547v1.388h4.039v.57h-.001zm0-2.554H.446v-3.062h.547v2.505h1.389v-2.337h.557v2.337h1.57v-2.601h.523v3.158h-.001zm0-3.934H.446v-.591l3.599-2.198H.446v-.538h4.586v.567l-3.604 2.223h3.604v.537h-.001zm0-4.28H.446v-1.45c0-.342.023-.579.066-.766.057-.248.157-.44.314-.628.213-.214.47-.38.789-.492.325-.103.698-.171 1.099-.171.341 0 .655.057.94.112.25.09.493.17.657.3.197.107.301.245.418.392.093.115.163.294.22.502.06.19.083.409.083.683v1.518h-.001zm-.524-.56v-.893c0-.286-.04-.512-.116-.662-.04-.155-.128-.294-.21-.38-.16-.13-.346-.247-.602-.3-.234-.092-.525-.12-.866-.12-.494 0-.855.065-1.122.216-.238.139-.43.304-.518.52-.046.161-.08.407-.08.73v.89h3.514v-.001zm.524-3.732H.446v-3.057h.547v2.5h1.389V52.35h.557v2.333h1.57v-2.591h.523v3.148h-.001zm0-3.926H.446v-.567l3.599-2.23H.446v-.533h4.586v.574l-3.604 2.21h3.604v.546h-.001zM3.405 44.02l.175-.573c.493.108.888.342 1.137.643.256.31.396.692.396 1.125 0 .44-.105.817-.314 1.096-.198.317-.488.525-.861.675-.394.14-.802.21-1.224.21-.494 0-.908-.07-1.25-.263-.362-.145-.638-.399-.824-.699-.17-.314-.28-.67-.28-1.033 0-.42.11-.785.342-1.068.252-.302.577-.499 1.006-.615l.128.534c-.332.13-.58.252-.719.44-.163.21-.24.435-.24.723 0 .323.088.602.262.813.172.213.394.374.667.47.286.08.6.13.908.13.377 0 .714-.05 1.004-.158.303-.112.51-.273.65-.507.14-.21.221-.451.221-.708 0-.328-.08-.568-.295-.804-.187-.21-.488-.361-.89-.43l.001-.001zM.446 42.675h4.586v-.563H.446v.563zm4.586-1.09L.446 39.95v-.605l4.586-1.739v.656l-1.378.486v1.787l1.378.451v.6-.001zm-1.883-1.232v-1.438l-1.274.452c-.376.128-.712.236-.952.304.287.054.581.123.883.23l1.343.452zm1.883-4.859H.446V32.64h.547v2.305h1.413V32.95h.545v1.996h2.08v.55l.001-.002zm-4.586-3.68h4.586v-.558H.446v.559-.001zm4.586-1.555H.446v-.554l3.599-2.236H.446v-.545h4.586v.572l-3.604 2.236h3.604v.527zm0-3.804l-4.586-1.64v-.594l4.586-1.733v.633l-1.378.515v1.763l1.378.468v.588zm-1.883-1.229v-1.435l-1.274.439c-.376.141-.712.253-.952.3.287.082.581.133.883.232l1.343.464zm1.883-3.174H.446v-.584l3.599-2.215H.446v-.542h4.586v.58l-3.604 2.214h3.604v.547zm-1.627-7.325l.175-.545c.493.132.888.326 1.137.63.256.317.396.676.396 1.122 0 .46-.105.83-.314 1.12-.198.286-.488.505-.861.643-.394.15-.802.228-1.224.228-.494 0-.908-.078-1.25-.243-.362-.177-.638-.407-.824-.72-.17-.32-.28-.658-.28-1.045 0-.416.11-.76.342-1.065.252-.286.577-.48 1.006-.602l.128.559c-.332.111-.58.234-.719.42-.163.19-.24.416-.24.705 0 .331.088.611.262.822.172.219.394.374.667.46.286.09.6.15.908.15.377 0 .714-.06 1.004-.168.303-.116.51-.283.65-.503.14-.21.221-.451.221-.717 0-.318-.08-.57-.295-.795-.187-.237-.488-.37-.89-.456h.001zm-2.959-1.33h4.586v-.562H.446v.562zm4.586-1.56H.446V8.774h.547v2.51h1.389v-2.35h.557v2.35h1.57V8.667h.523v3.17zm0-3.948H.446V6.018c0-.387.037-.665.123-.871.071-.202.221-.357.424-.471.217-.114.46-.171.703-.171.333 0 .617.096.819.285.226.192.372.492.436.911.07-.15.14-.274.22-.34.164-.158.373-.326.6-.455l1.26-.743v.705l-.958.544c-.275.165-.493.315-.633.423-.129.103-.252.19-.304.262-.062.09-.092.182-.116.263-.035.064-.035.171-.035.318v.653h2.047v.558zm-2.556-.558V6.13c0-.263-.037-.471-.094-.6-.064-.155-.145-.258-.273-.327-.133-.071-.273-.129-.413-.129-.197 0-.4.073-.533.215-.135.16-.21.385-.21.696v1.346h1.523zm2.556-3.253L.446 2.45v-.595L5.032.124V.76l-1.378.493v1.774l1.378.452v.599zM3.149 2.869V1.417l-1.274.464c-.376.142-.712.228-.952.293.287.057.581.121.883.223l1.343.472z" mask="url(#3rophh8o8b)"/></g><g transform="translate(-64 -450) translate(64 450)"><mask id="jgxdrssqvd" fill="#fff"><use xlink:href="#lfmni3galc"/></mask><path fill="#ADADAD" fill-rule="nonzero" d="M0 157.876h1.922V101.57H0v56.307-.001zm14.047 0h1.927V101.57h-1.927v56.307-.001z" mask="url(#jgxdrssqvd)"/></g></g></g></g></svg>